<svg width="16.36" height="20" viewBox="0 0 18 22" fill="none" xmlns="http://www.w3.org/2000/svg">
<path d="M0.329625 8.74989L8.20463 0.874886C8.41559 0.663981 8.70169 0.545502 9 0.545502C9.29831 0.545502 9.58441 0.663981 9.79537 0.874886L17.6704 8.74989C17.8814 8.96082 17.9999 9.24692 18 9.54526V20.3295C18 20.6279 17.8815 20.914 17.6705 21.125C17.4595 21.336 17.1734 21.4545 16.875 21.4545H11.25V13.5795H6.75V21.4545H1.125C0.826631 21.4545 0.540484 21.336 0.329505 21.125C0.118527 20.914 0 20.6279 0 20.3295V9.54526C6.37171e-05 9.24692 0.118632 8.96082 0.329625 8.74989Z" fill="#BABABA"/>
</svg>
